<svg width="94" height="125" viewBox="0 0 94 125" fill="none" xmlns="http://www.w3.org/2000/svg">
<g clip-path="url(#clip0_236_1012)">
<path d="M68.9473 12.5396C68.9473 5.61057 74.5551 0 81.4806 0C88.4062 0 94.014 5.61057 94.014 12.5396C94.014 19.4685 88.4062 25.0791 81.4806 25.0791C74.5551 25.0791 68.9473 19.4685 68.9473 12.5396Z" fill="#9CBFE9"/>
<path d="M33.6328 12.5396C33.6328 5.61057 39.2406 0 46.1662 0C53.0917 0 58.6995 5.61057 58.6995 12.5396C58.6995 19.4685 53.0917 25.0791 46.1662 25.0791C39.2406 25.0791 33.6328 19.4685 33.6328 12.5396Z" fill="#9CBFE9"/>
<path d="M-1.68359 12.5396C-1.68359 5.61057 3.92421 0 10.8498 0C17.7753 0 23.3831 5.61057 23.3831 12.5396C23.3831 19.4685 17.7753 25.0791 10.8498 25.0791C3.92421 25.0791 -1.68359 19.4685 -1.68359 12.5396Z" fill="#9CBFE9"/>
<path d="M68.9473 62.5073C68.9473 55.5783 74.5551 49.9678 81.4806 49.9678C88.4062 49.9678 94.014 55.5783 94.014 62.5073C94.014 69.4363 88.4062 75.0469 81.4806 75.0469C74.5551 75.0469 68.9473 69.4363 68.9473 62.5073Z" fill="#1F3F66"/>
<path d="M33.6328 62.5073C33.6328 55.5783 39.2406 49.9678 46.1662 49.9678C53.0917 49.9678 58.6995 55.5783 58.6995 62.5073C58.6995 69.4363 53.0917 75.0469 46.1662 75.0469C39.2406 75.0469 33.6328 69.4363 33.6328 62.5073Z" fill="#1F3F66"/>
<path d="M-1.68359 62.5073C-1.68359 55.5783 3.92421 49.9678 10.8498 49.9678C17.7753 49.9678 23.3831 55.5783 23.3831 62.5073C23.3831 69.4363 17.7753 75.0469 10.8498 75.0469C3.92421 75.0469 -1.68359 69.4363 -1.68359 62.5073Z" fill="#1F3F66"/>
<path d="M68.9473 112.475C68.9473 105.546 74.5551 99.9355 81.4806 99.9355C88.4062 99.9355 94.014 105.546 94.014 112.475C94.014 119.404 88.4062 125.015 81.4806 125.015C74.5551 125.015 68.9473 119.404 68.9473 112.475Z" fill="#9CBFE9"/>
<path d="M33.6328 112.475C33.6328 105.546 39.2406 99.9355 46.1662 99.9355C53.0917 99.9355 58.6995 105.546 58.6995 112.475C58.6995 119.404 53.0917 125.015 46.1662 125.015C39.2406 125.015 33.6328 119.404 33.6328 112.475Z" fill="#9CBFE9"/>
<path d="M-1.68359 112.475C-1.68359 105.546 3.92421 99.9355 10.8498 99.9355C17.7753 99.9355 23.3831 105.546 23.3831 112.475C23.3831 119.404 17.7753 125.015 10.8498 125.015C3.92421 125.015 -1.68359 119.404 -1.68359 112.475Z" fill="#9CBFE9"/>
</g>
<defs>
<clipPath id="clip0_236_1012">
<rect width="131" height="125" fill="white" transform="translate(-37)"/>
</clipPath>
</defs>
</svg>
