<svg width="28" height="28" viewBox="0 0 28 28" fill="none" xmlns="http://www.w3.org/2000/svg">
<path d="M8.33398 21.9998C6.86732 21.9998 5.68065 23.1998 5.68065 24.6665C5.68065 26.1332 6.86732 27.3332 8.33398 27.3332C9.80065 27.3332 11.0007 26.1332 11.0007 24.6665C11.0007 23.1998 9.80065 21.9998 8.33398 21.9998ZM0.333984 0.666504V3.33317H3.00065L7.80065 13.4532L6.00065 16.7198C5.78732 17.0932 5.66732 17.5332 5.66732 17.9998C5.66732 19.4665 6.86732 20.6665 8.33398 20.6665H24.334V17.9998H8.89398C8.70732 17.9998 8.56065 17.8532 8.56065 17.6665L8.60065 17.5065L9.80065 15.3332H19.734C20.734 15.3332 21.614 14.7865 22.0673 13.9598L26.8407 5.3065C26.9507 5.10302 27.006 4.87448 27.0013 4.64321C26.9966 4.41194 26.9319 4.18585 26.8137 3.98702C26.6955 3.7882 26.5277 3.62343 26.3268 3.50883C26.1259 3.39423 25.8986 3.3337 25.6673 3.33317H5.94732L4.69398 0.666504H0.333984ZM21.6673 21.9998C20.2007 21.9998 19.014 23.1998 19.014 24.6665C19.014 26.1332 20.2007 27.3332 21.6673 27.3332C23.134 27.3332 24.334 26.1332 24.334 24.6665C24.334 23.1998 23.134 21.9998 21.6673 21.9998Z" fill="#1F3F66"/>
</svg>
