<?xml version="1.0" encoding="UTF-8"?>
<svg id="Layer_2" data-name="Layer 2" xmlns="http://www.w3.org/2000/svg" xmlns:xlink="http://www.w3.org/1999/xlink" viewBox="0 0 1280 320">
  <defs>
    <style>
      .cls-1 {
        fill: none;
      }

      .cls-2 {
        clip-path: url(#clippath);
      }

      .cls-3 {
        fill: #9cbfe9;
      }

      .cls-4 {
        fill: #1f3f66;
      }
    </style>
    <clipPath id="clippath">
      <path class="cls-1" d="m0,0v319.89h805.32c.39,0,.75.04,1.1.11h473.58V0H0Z"/>
    </clipPath>
  </defs>
  <g id="Layer_1-2" data-name="Layer 1">
    <g class="cls-2">
      <path class="cls-4" d="m1283.15-13.42l-176.68,3.26c-.76.49-1.71.79-2.85.79h-39.98l-137.56,2.54c-.21,122.4-164.4,212.67-69.82,322,5.35,6.18,10.75,11.48,16.22,16.02h410.67V-13.42Z"/>
      <path class="cls-3" d="m180.46,331.18h709.26c19.27-80.94-15.89-145.23,4.51-184,24.24-46.06,133.19-33.63,181.28-156.55h-526.7L237.75-3.64c-.21,122.4-164.4,212.67-69.82,322,4.14,4.78,8.31,9.04,12.52,12.82Z"/>
      <path class="cls-4" d="m584.31,331.18c19.27-80.94-15.89-145.23,4.51-184,24.24-46.06,133.19-33.63,181.28-156.55H243.4L-45.58-4.05v335.23h629.89Z"/>
      <path class="cls-3" d="m197.07,331.18c-1.28-4.49-2.64-9.01-4.09-13.55C150.76,186.16,321.68,96.78,284.77-9.38H-45.58v340.55h242.66Z"/>
    </g>
  </g>
</svg>