<?xml version="1.0" encoding="UTF-8"?>
<svg id="Layer_1" data-name="Layer 1" xmlns="http://www.w3.org/2000/svg" xmlns:xlink="http://www.w3.org/1999/xlink" viewBox="0 0 1539.05 781.84">
  <defs>
    <style>
      .cls-1 {
        clip-path: url(#clippath);
      }

      .cls-2, .cls-3 {
        fill: #9cbfe9;
      }

      .cls-4 {
        clip-rule: evenodd;
        fill: none;
      }

      .cls-5 {
        fill: #1f3f66;
      }

      .cls-5, .cls-3 {
        fill-rule: evenodd;
      }
    </style>
    <clipPath id="clippath">
      <polygon class="cls-4" points="1539.05 676.28 0 688.29 0 0 1539.05 0 1539.05 676.28"/>
    </clipPath>
  </defs>
  <g class="cls-1">
    <path class="cls-5" d="m-6.19,596.29h1655.62s-110.38,0-110.38,0V16.77c-172.17,279.84-454.07,462.23-772.62,462.23-318.55,0-600.45-182.39-772.62-462.24v579.52Z"/>
    <path class="cls-3" d="m-6.19,688.29h772.62l883-14.01-110.38,14.01V94.77c-172.17,279.84-454.07,462.23-772.62,462.23-318.55,0-600.45-182.39-772.62-462.24v593.53Z"/>
  </g>
  <path class="cls-2" d="m1229.62,504.47l-328.38,165.2-131.77-68.01-258.19,61.91-138.3-156.95L0,688.29s128.12,113.86,266.89,32.85c137.12-80.04,178.4,120.12,310.17,26.06,5.98-3.45,36.1-30.49,42.29-35.1,85.48-63.65,192.91-.39,245.52,34.41,78.36,51.82,164.97,41.87,245.34.94,19.94-10.15,40.95-20.78,60.72-32.18,20.12-11.61,38.53-23.86,61.48-29.39,29.73-7.17,59.5-2.2,87.93,7.78,56.14,19.72,108.76,50.38,167.78,20.42,18.98-9.64,35.77-23.24,50.93-38.06l-309.43-171.56Z"/>
</svg>