<svg width="111" height="125" viewBox="0 0 111 125" fill="none" xmlns="http://www.w3.org/2000/svg">
<g clip-path="url(#clip0_236_964)">
<path d="M105.947 12.5396C105.947 5.61057 111.555 0 118.481 0C125.406 0 131.014 5.61057 131.014 12.5396C131.014 19.4685 125.406 25.0791 118.481 25.0791C111.555 25.0791 105.947 19.4685 105.947 12.5396Z" fill="#9CBFE9"/>
<path d="M70.6328 12.5396C70.6328 5.61057 76.2406 0 83.1662 0C90.0917 0 95.6995 5.61057 95.6995 12.5396C95.6995 19.4685 90.0917 25.0791 83.1662 25.0791C76.2406 25.0791 70.6328 19.4685 70.6328 12.5396Z" fill="#9CBFE9"/>
<path d="M35.3164 12.5396C35.3164 5.61057 40.9242 0 47.8498 0C54.7753 0 60.3831 5.61057 60.3831 12.5396C60.3831 19.4685 54.7753 25.0791 47.8498 25.0791C40.9242 25.0791 35.3164 19.4685 35.3164 12.5396Z" fill="#9CBFE9"/>
<path d="M0 12.5396C0 5.61057 5.6078 0 12.5334 0C19.4589 0 25.0667 5.61057 25.0667 12.5396C25.0667 19.4685 19.4589 25.0791 12.5334 25.0791C5.6078 25.0791 0 19.4539 0 12.5396Z" fill="#9CBFE9"/>
<path d="M105.947 62.5073C105.947 55.5783 111.555 49.9678 118.481 49.9678C125.406 49.9678 131.014 55.5783 131.014 62.5073C131.014 69.4363 125.406 75.0469 118.481 75.0469C111.555 75.0469 105.947 69.4363 105.947 62.5073Z" fill="#1F3F66"/>
<path d="M70.6328 62.5073C70.6328 55.5783 76.2406 49.9678 83.1662 49.9678C90.0917 49.9678 95.6995 55.5783 95.6995 62.5073C95.6995 69.4363 90.0917 75.0469 83.1662 75.0469C76.2406 75.0469 70.6328 69.4363 70.6328 62.5073Z" fill="#1F3F66"/>
<path d="M35.3164 62.5073C35.3164 55.5783 40.9242 49.9678 47.8498 49.9678C54.7753 49.9678 60.3831 55.5783 60.3831 62.5073C60.3831 69.4363 54.7753 75.0469 47.8498 75.0469C40.9242 75.0469 35.3164 69.4363 35.3164 62.5073Z" fill="#1F3F66"/>
<path d="M0 62.5073C0 55.5783 5.6078 49.9678 12.5334 49.9678C19.4589 49.9678 25.0667 55.5783 25.0667 62.5073C25.0667 69.4363 19.4589 75.0469 12.5334 75.0469C5.6078 75.0469 0 69.4217 0 62.5073Z" fill="#1F3F66"/>
<path d="M105.947 112.475C105.947 105.546 111.555 99.9355 118.481 99.9355C125.406 99.9355 131.014 105.546 131.014 112.475C131.014 119.404 125.406 125.015 118.481 125.015C111.555 125.015 105.947 119.404 105.947 112.475Z" fill="#9CBFE9"/>
<path d="M70.6328 112.475C70.6328 105.546 76.2406 99.9355 83.1662 99.9355C90.0917 99.9355 95.6995 105.546 95.6995 112.475C95.6995 119.404 90.0917 125.015 83.1662 125.015C76.2406 125.015 70.6328 119.404 70.6328 112.475Z" fill="#9CBFE9"/>
<path d="M35.3164 112.475C35.3164 105.546 40.9242 99.9355 47.8498 99.9355C54.7753 99.9355 60.3831 105.546 60.3831 112.475C60.3831 119.404 54.7753 125.015 47.8498 125.015C40.9242 125.015 35.3164 119.404 35.3164 112.475Z" fill="#9CBFE9"/>
<path d="M0 112.475C0 105.546 5.6078 99.9355 12.5334 99.9355C19.4589 99.9355 25.0667 105.546 25.0667 112.475C25.0667 119.404 19.4589 125.015 12.5334 125.015C5.6078 125.015 0 119.404 0 112.475Z" fill="#9CBFE9"/>
</g>
<defs>
<clipPath id="clip0_236_964">
<rect width="131" height="125" fill="white"/>
</clipPath>
</defs>
</svg>
