<svg width="239" height="384" viewBox="0 0 239 384" fill="none" xmlns="http://www.w3.org/2000/svg">
<g clip-path="url(#clip0_471_1190)">
<path d="M239 118.92C239 169.74 167.46 262.47 135.09 301.83C127.03 311.63 111.97 311.63 103.92 301.83C71.54 262.47 0 169.74 0 118.92C0 53.24 53.5 0 119.5 0C185.5 0 239 53.24 239 118.92Z" fill="#98B8EC"/>
<path d="M119.5 185.24C156.309 185.24 186.15 155.548 186.15 118.92C186.15 82.2924 156.309 52.6 119.5 52.6C82.6898 52.6 52.8496 82.2924 52.8496 118.92C52.8496 155.548 82.6898 185.24 119.5 185.24Z" fill="white"/>
<path d="M119.5 384C132.993 384 143.93 373.116 143.93 359.69C143.93 346.264 132.993 335.38 119.5 335.38C106.008 335.38 95.0703 346.264 95.0703 359.69C95.0703 373.116 106.008 384 119.5 384Z" fill="#98B8EC"/>
</g>
<defs>
<clipPath id="clip0_471_1190">
<rect width="239" height="384" fill="white"/>
</clipPath>
</defs>
</svg>
