<svg width="1278" height="522" viewBox="0 0 1278 522" fill="none" xmlns="http://www.w3.org/2000/svg">
<path d="M406.633 473.182C458.887 465.817 514.878 464.749 559.294 439.541C598.998 417.001 622.674 378.906 649.301 344.654C675.928 310.402 711.384 276.478 758.286 271.019C806.82 265.368 857.817 291.736 903.468 276.242C955.563 258.567 969.379 197.688 1014.9 169.323C1055.87 143.786 1111.13 150.473 1161.33 147.934C1230.74 144.427 1297.75 119.417 1350.73 80.0863V0C1323.04 36.5775 1278.94 63.9059 1229.3 70.7303C1186.92 76.5559 1143.85 68.9765 1101 67.3219C1058.15 65.6673 1011.38 71.4623 981.168 98.1273C947.823 127.56 942.402 175.629 907.136 203.292C870.116 232.336 813.751 229.126 764.844 221.387C715.937 213.655 662.904 203.59 618.602 223.331C534.925 260.618 537.205 377.038 456.714 419.372C412.946 442.392 358 436.247 306.98 437.794C195.181 441.195 86.4475 488.059 13.5059 562.114V644.892H78.9596C158.81 554.84 277.883 491.323 406.617 473.175L406.633 473.182Z" fill="#9CBFE9"/>
<path d="M516.209 508.655C568.25 491.086 626.102 482.798 669.687 452.32C719.387 417.573 748.56 355.642 810.72 343.892C858.888 334.787 911.02 360.644 957.084 345.318C1010.85 327.429 1026.72 263.935 1076.99 239.481C1116.78 220.129 1165.77 230.507 1211.28 229.919C1261.69 229.271 1310.86 212.839 1350.74 185.9V80.0864C1297.75 119.409 1230.74 144.427 1161.33 147.934C1111.13 150.474 1055.87 143.786 1014.9 169.323C969.383 197.688 955.566 258.567 903.472 276.242C857.813 291.736 806.824 265.368 758.29 271.019C711.388 276.478 675.931 310.402 649.305 344.654C622.678 378.906 599.002 417.001 559.298 439.541C514.882 464.749 458.891 465.817 406.636 473.183C277.902 491.33 158.828 554.847 78.9785 644.9H328.731C372.659 583.663 439.089 534.687 516.216 508.647L516.209 508.655Z" fill="#2A568C"/>
<path fill-rule="evenodd" clip-rule="evenodd" d="M1174 228.802C1186.52 229.44 1199.03 230.077 1211.28 229.919L1211.29 229.934C1261.71 229.286 1310.88 212.854 1350.75 185.915V358.821C1347.89 358.703 1345.02 358.648 1342.15 358.654V640.261H631.83C630.73 641.799 629.651 643.348 628.591 644.907H328.727C372.655 583.662 439.084 534.686 516.212 508.654C531.516 503.488 547.322 499.124 563.12 494.763C601.044 484.293 638.922 473.835 669.69 452.32C687.822 439.639 703.223 423.34 718.491 407.182C745.069 379.056 771.245 351.354 810.724 343.891C832.897 339.7 855.911 342.918 878.787 346.116C905.603 349.866 932.229 353.588 957.087 345.317C985.641 335.816 1003.5 313.447 1021.51 290.896C1037.41 270.992 1053.42 250.946 1076.99 239.481C1106.06 225.341 1140.05 227.073 1174 228.802Z" fill="#1F3F66"/>
<path d="M461.701 388.117C447.374 400.149 425.048 406.661 407.19 399.059C395.554 394.11 387.242 381.186 393.282 371.174C399.862 360.263 417.445 359.729 428.898 352.546C446.688 341.39 447.961 315.305 468.046 307.695C478.866 303.593 492.797 307.367 499.087 316.098C509.335 330.311 496.8 338.546 489.159 349.267C479.659 362.596 475.16 376.817 461.701 388.117Z" fill="#9CBFE9"/>
<path d="M0.443656 536.08C-13.8839 548.112 -36.2101 554.624 -54.0681 547.022C-65.704 542.073 -74.0153 529.149 -67.9763 519.137C-61.3958 508.225 -43.8124 507.692 -32.3595 500.509C-14.5702 489.353 -13.2967 463.268 6.78774 455.658C17.6077 451.556 31.5387 455.33 37.8294 464.061C48.0776 478.274 35.5419 486.509 27.9016 497.23C18.4007 510.559 13.9019 524.78 0.443656 536.08Z" fill="#9CBFE9"/>
<path d="M341.158 414.759C364.018 415.666 372.353 383.13 347.335 380.957C322.157 378.776 313.784 413.668 341.158 414.759Z" fill="#9CBFE9"/>
<path d="M624.867 162.811C620.025 165.419 615.435 168.667 612.698 173.028C609.96 177.39 609.388 183.048 612.4 187.265C616.968 193.662 627.117 194.363 635.733 194.363C655.955 194.363 676.184 194.363 696.406 194.363C700.76 194.363 705.297 194.325 709.201 192.633C716.277 189.56 719.22 181.431 717.024 174.782C707.386 145.616 646.553 151.129 624.875 162.818L624.867 162.811Z" fill="#9CBFE9"/>
<path d="M960.127 99.4464C953.028 107.689 944.496 116.656 932.745 117.457C921.514 118.227 910.991 110.404 907.903 100.91C904.815 91.4248 908.124 80.9861 914.468 72.8349C920.812 64.676 929.894 58.4768 939.234 52.9639C948.59 47.4433 959.128 42.2888 970.39 42.8607C983.696 43.5317 995.912 54.8168 989.003 65.9647C981.676 77.7836 969.376 88.6874 960.119 99.4464H960.127Z" fill="#9CBFE9"/>
</svg>
