<?xml version="1.0" encoding="UTF-8"?>
<svg id="Layer_2" data-name="Layer 2" xmlns="http://www.w3.org/2000/svg" viewBox="0 0 304.25 47.87">
  <defs>
    <style>
      .cls-1 {
        fill: #1f3f66;
      }
    </style>
  </defs>
  <g id="Texto">
    <g>
      <path class="cls-1" d="m33.47,28.19c1.58,2.03,2.37,4.34,2.37,6.94,0,3.75-1.31,6.73-3.94,8.93-2.62,2.2-6.28,3.3-10.98,3.3H0V2.43h20.22c4.56,0,8.14,1.05,10.72,3.14,2.58,2.09,3.87,4.93,3.87,8.51,0,2.65-.69,4.84-2.08,6.59-1.39,1.75-3.23,2.97-5.54,3.65,2.6.56,4.69,1.85,6.27,3.87Zm-22.53-7.58h7.17c1.79,0,3.17-.39,4.13-1.18.96-.79,1.44-1.95,1.44-3.49s-.48-2.71-1.44-3.52c-.96-.81-2.34-1.22-4.13-1.22h-7.17v9.41Zm12.32,16.67c1-.83,1.5-2.04,1.5-3.62s-.52-2.82-1.57-3.71c-1.05-.9-2.49-1.34-4.32-1.34h-7.94v9.92h8.06c1.83,0,3.25-.42,4.26-1.25Z"/>
      <path class="cls-1" d="m48.99,45.63c-2.8-1.49-4.99-3.63-6.59-6.4-1.6-2.77-2.4-6.02-2.4-9.73s.81-6.9,2.43-9.7c1.62-2.79,3.84-4.94,6.66-6.43,2.82-1.49,5.97-2.24,9.47-2.24s6.66.75,9.47,2.24c2.82,1.49,5.03,3.64,6.66,6.43,1.62,2.79,2.43,6.03,2.43,9.7s-.82,6.9-2.46,9.7c-1.64,2.79-3.88,4.94-6.72,6.43-2.84,1.49-6.01,2.24-9.5,2.24s-6.65-.75-9.44-2.24Zm14.78-9.54c1.47-1.54,2.21-3.73,2.21-6.59s-.71-5.06-2.14-6.59c-1.43-1.54-3.19-2.3-5.28-2.3s-3.9.76-5.31,2.27c-1.41,1.52-2.11,3.72-2.11,6.62s.69,5.06,2.08,6.59c1.39,1.54,3.12,2.3,5.22,2.3s3.87-.77,5.34-2.3Z"/>
      <path class="cls-1" d="m89.76,45.63c-2.8-1.49-4.99-3.63-6.59-6.4-1.6-2.77-2.4-6.02-2.4-9.73s.81-6.9,2.43-9.7c1.62-2.79,3.84-4.94,6.66-6.43,2.82-1.49,5.97-2.24,9.47-2.24s6.66.75,9.47,2.24c2.82,1.49,5.03,3.64,6.66,6.43,1.62,2.79,2.43,6.03,2.43,9.7s-.82,6.9-2.46,9.7c-1.64,2.79-3.88,4.94-6.72,6.43-2.84,1.49-6.01,2.24-9.5,2.24s-6.65-.75-9.44-2.24Zm14.78-9.54c1.47-1.54,2.21-3.73,2.21-6.59s-.71-5.06-2.14-6.59c-1.43-1.54-3.19-2.3-5.28-2.3s-3.9.76-5.31,2.27c-1.41,1.52-2.11,3.72-2.11,6.62s.69,5.06,2.08,6.59c1.39,1.54,3.12,2.3,5.22,2.3s3.87-.77,5.34-2.3Z"/>
      <path class="cls-1" d="m145.54,47.36l-10.88-14.98v14.98h-10.94V0h10.94v26.18l10.82-14.53h13.5l-14.85,17.92,14.98,17.79h-13.57Z"/>
      <path class="cls-1" d="m174.21,0v47.36h-10.94V0h10.94Z"/>
      <path class="cls-1" d="m182.05,19.78c1.39-2.77,3.27-4.91,5.66-6.4,2.39-1.49,5.06-2.24,8-2.24,2.52,0,4.73.51,6.62,1.54,1.9,1.02,3.36,2.37,4.38,4.03v-5.06h10.94v35.71h-10.94v-5.06c-1.07,1.66-2.55,3.01-4.45,4.03-1.9,1.02-4.11,1.54-6.62,1.54-2.9,0-5.55-.76-7.94-2.27-2.39-1.51-4.28-3.67-5.66-6.46-1.39-2.79-2.08-6.03-2.08-9.7s.69-6.89,2.08-9.66Zm22.4,3.26c-1.52-1.58-3.36-2.37-5.54-2.37s-4.02.78-5.54,2.34c-1.52,1.56-2.27,3.7-2.27,6.43s.76,4.9,2.27,6.5c1.51,1.6,3.36,2.4,5.54,2.4s4.02-.79,5.54-2.37c1.51-1.58,2.27-3.73,2.27-6.46s-.76-4.89-2.27-6.46Z"/>
      <path class="cls-1" d="m257.37,15.33c2.5,2.71,3.74,6.43,3.74,11.17v20.86h-10.88v-19.39c0-2.39-.62-4.25-1.86-5.57-1.24-1.32-2.9-1.98-4.99-1.98s-3.75.66-4.99,1.98c-1.24,1.32-1.86,3.18-1.86,5.57v19.39h-10.94V11.65h10.94v4.74c1.11-1.58,2.6-2.83,4.48-3.74,1.88-.92,3.99-1.38,6.34-1.38,4.18,0,7.52,1.35,10.02,4.06Z"/>
      <path class="cls-1" d="m268.64,19.78c1.39-2.77,3.27-4.91,5.66-6.4,2.39-1.49,5.06-2.24,8-2.24,2.35,0,4.49.49,6.43,1.47,1.94.98,3.47,2.3,4.58,3.97V0h10.94v47.36h-10.94v-5.12c-1.02,1.71-2.49,3.07-4.38,4.1-1.9,1.02-4.11,1.54-6.62,1.54-2.94,0-5.61-.76-8-2.27-2.39-1.51-4.28-3.67-5.66-6.46-1.39-2.79-2.08-6.03-2.08-9.7s.69-6.89,2.08-9.66Zm22.4,3.26c-1.52-1.58-3.36-2.37-5.54-2.37s-4.02.78-5.54,2.34c-1.52,1.56-2.27,3.7-2.27,6.43s.76,4.9,2.27,6.5c1.51,1.6,3.36,2.4,5.54,2.4s4.02-.79,5.54-2.37c1.51-1.58,2.27-3.73,2.27-6.46s-.76-4.89-2.27-6.46Z"/>
    </g>
  </g>
</svg>